<svg xmlns="http://www.w3.org/2000/svg" xmlns:xlink="http://www.w3.org/1999/xlink" width="115px" height="23px" viewBox="0 0 115 23"><title>B5C299F9-D6AF-48D2-AB05-6ABA85CA28AC</title><desc>Created with sketchtool.</desc><defs><radialGradient cx="47.0949027%" cy="52.7770672%" fx="47.0949027%" fy="52.7770672%" r="54.7511559%" gradientTransform="translate(0.470949,0.527771),scale(0.986933,1.000000),rotate(44.749802),translate(-0.470949,-0.527771)" id="radialGradient-1"><stop stop-color="#F35F36" offset="0%"></stop><stop stop-color="#FF5108" offset="100%"></stop></radialGradient></defs><g id="Page-1" stroke="none" stroke-width="1" fill="none" fill-rule="evenodd"><g id="Corion-X" transform="translate(-672.000000, -4268.000000)" fill-rule="nonzero"><g id="corionx" transform="translate(672.000000, 4268.000000)"><g id="Group-9"><g id="corionx"><path d="M86.25,19.8 C85.3421053,19.8 84.6359649,19.1 84.6359649,18.2 C84.6359649,18.2 84.6359649,18.2 84.6359649,18.2 L84.6359649,12.6 C84.6359649,10.4 82.8201754,8.6 80.6008772,8.6 C78.3815789,8.6 76.5657895,10.4 76.5657895,12.6 L76.5657895,18.2 C76.5657895,19.1 75.8596491,19.8 74.9517544,19.8 C74.9517544,19.8 74.9517544,19.8 74.9517544,19.8 C74.0438596,19.8 73.3377193,19.1 73.3377193,18.2 C73.3377193,18.2 73.3377193,18.2 73.3377193,18.2 L73.3377193,12.6 C73.3377193,8.6 76.5657895,5.4 80.6008772,5.4 C84.6359649,5.4 87.8640351,8.6 87.8640351,12.6 L87.8640351,18.2 C87.8640351,19.1 87.1578947,19.9 86.25,19.8 C86.25,19.8 86.25,19.8 86.25,19.8 Z M63.4517544,19.8 C59.4166667,19.8 56.1885965,16.6 56.1885965,12.6 C56.1885965,8.6 59.4166667,5.4 63.4517544,5.4 C67.4868421,5.4 70.7149123,8.6 70.7149123,12.6 C70.7149123,16.6 67.4868421,19.8 63.4517544,19.8 Z M63.4517544,8.7 C61.2324561,8.7 59.4166667,10.5 59.4166667,12.7 C59.4166667,14.9 61.2324561,16.7 63.4517544,16.7 C65.6710526,16.7 67.4868421,14.9 67.4868421,12.7 C67.4868421,10.5 65.6710526,8.7 63.4517544,8.7 Z M51.9517544,3.6 C50.9429825,3.6 50.1359649,2.8 50.1359649,1.8 C50.1359649,0.8 50.9429825,0 51.9517544,0 C52.9605263,0 53.7675439,0.8 53.7675439,1.8 C53.7675439,2.8 52.9605263,3.6 51.9517544,3.6 Z M44.5877193,10.8 C43.8815789,9.5 42.4692982,8.6 40.9561404,8.6 C38.7368421,8.6 36.9210526,10.4 36.9210526,12.6 L36.9210526,18.2 C36.9210526,19.1 36.2149123,19.8 35.3070175,19.8 C34.3991228,19.8 33.6929825,19.1 33.6929825,18.2 C33.6929825,18.2 33.6929825,18.2 33.6929825,18.2 L33.6929825,12.6 C33.6929825,8.6 36.9210526,5.4 40.9561404,5.4 C43.6798246,5.4 46.2017544,6.9 47.4122807,9.3 C47.8157895,10.1 47.5131579,11 46.7061404,11.4 C46.7061404,11.4 46.7061404,11.4 46.7061404,11.4 C46,11.9 44.9912281,11.6 44.5877193,10.8 Z M23.8070175,19.8 C19.7719298,19.8 16.5438596,16.6 16.5438596,12.6 C16.5438596,8.6 19.7719298,5.4 23.8070175,5.4 C27.8421053,5.4 31.0701754,8.6 31.0701754,12.6 C31.0701754,16.6 27.8421053,19.8 23.8070175,19.8 Z M23.8070175,8.7 C21.5877193,8.7 19.7719298,10.5 19.7719298,12.7 C19.7719298,14.9 21.5877193,16.7 23.8070175,16.7 C26.0263158,16.7 27.8421053,14.9 27.8421053,12.7 C27.8421053,10.5 26.0263158,8.7 23.8070175,8.7 Z M7.26315789,16.7 C8.77631579,16.7 10.1885965,15.9 10.8947368,14.5 C11.2982456,13.7 12.3070175,13.4 13.1140351,13.8 C13.9210526,14.2 14.2236842,15.2 13.8201754,15.9 C13.8201754,15.9 13.8201754,15.9 13.8201754,15.9 C12.6096491,18.3 10.0877193,19.8 7.36403509,19.8 C3.32894737,19.8 0.100877193,16.6 0.100877193,12.6 C0.100877193,8.6 3.32894737,5.4 7.36403509,5.4 C10.0877193,5.4 12.5087719,6.9 13.8201754,9.3 C14.2236842,10.1 13.9210526,11 13.1140351,11.4 C13.1140351,11.4 13.1140351,11.4 13.1140351,11.4 C12.3070175,11.8 11.3991228,11.5 10.8947368,10.7 C10.1885965,9.4 8.77631579,8.5 7.26315789,8.5 C5.04385965,8.5 3.22807018,10.3 3.22807018,12.5 C3.22807018,14.9 5.04385965,16.7 7.26315789,16.7 Z M51.9517544,5.5 C52.8596491,5.5 53.5657895,6.2 53.5657895,7.1 L53.5657895,18.3 C53.5657895,19.2 52.8596491,19.9 51.9517544,19.9 C51.0438596,19.9 50.3377193,19.2 50.3377193,18.3 C50.3377193,18.3 50.3377193,18.3 50.3377193,18.3 L50.3377193,7.1 C50.3377193,6.2 51.0438596,5.5 51.9517544,5.5 C51.9517544,5.5 51.9517544,5.5 51.9517544,5.5 Z" id="Shape" fill="#FFFFFF"></path><path d="M113.184211,10.4 C113.587719,13.6 112.679825,17 110.057018,19.5 C105.921053,23.6 99.0614035,23.6 94.9254386,19.5 C90.7894737,15.4 90.7894737,8.6 94.9254386,4.5 C97.4473684,2 100.877193,1 104.105263,1.5 C104.105263,1.5 111.872807,2.8 114.697368,0 C111.872807,2.8 113.184211,10.4 113.184211,10.4 Z M100.171053,17.3 C100.372807,17.1 100.473684,17 100.574561,16.8 C100.574561,16.8 100.574561,16.7 100.675439,16.6 C100.877193,16.1 101.684211,14.8 102.592105,13.8 C103.600877,14.8 104.307018,16.1 104.508772,16.6 C104.609649,16.7 104.609649,16.8 104.609649,16.8 C104.710526,17 104.811404,17.2 105.013158,17.3 C105.820175,18.1 107.131579,18.1 108.039474,17.3 C108.846491,16.5 108.846491,15.1 108.039474,14.3 C107.837719,14.1 107.736842,14 107.535088,13.9 C107.535088,13.9 107.434211,13.9 107.333333,13.8 C106.828947,13.6 105.517544,12.8 104.508772,11.9 C105.517544,10.9 106.828947,10.2 107.333333,10 C107.434211,9.9 107.535088,9.9 107.535088,9.9 C107.736842,9.8 107.938596,9.7 108.039474,9.5 C108.846491,8.7 108.846491,7.4 108.039474,6.5 C107.232456,5.7 105.820175,5.7 105.013158,6.5 C104.811404,6.7 104.710526,6.8 104.609649,7 C104.609649,7 104.609649,7.1 104.508772,7.2 C104.307018,7.7 103.5,9 102.592105,10 C101.583333,9 100.877193,7.7 100.675439,7.2 C100.574561,7.1 100.574561,7 100.574561,7 C100.473684,6.8 100.372807,6.6 100.171053,6.5 C99.3640351,5.7 98.0526316,5.7 97.1447368,6.5 C96.3377193,7.3 96.3377193,8.7 97.1447368,9.5 C97.3464912,9.7 97.4473684,9.8 97.6491228,9.9 C97.6491228,9.9 97.75,9.9 97.8508772,10 C98.3552632,10.2 99.6666667,11 100.675439,11.9 C99.6666667,12.9 98.3552632,13.6 97.8508772,13.8 C97.75,13.9 97.6491228,13.9 97.6491228,13.9 C97.4473684,14 97.245614,14.1 97.1447368,14.3 C96.3377193,15.1 96.3377193,16.4 97.1447368,17.3 C97.9517544,18.1 99.3640351,18.1 100.171053,17.3 Z" id="Combined-Shape" fill="url(#radialGradient-1)"></path></g></g></g></g></g></svg>